<?xml version="1.0" encoding="UTF-8"?>
<svg id="_レイヤー_1" data-name="レイヤー 1" xmlns="http://www.w3.org/2000/svg" viewBox="0 0 566.93 566.93">
  <defs>
    <style>
      .cls-1 {
        fill: #d45245;
      }
    </style>
  </defs>
  <g>
    <path class="cls-1" d="M496.65,199.99c.35.25.5,2.09.86,2.78.42.79,3.49,2.79,2.96,3.81-.56,1.08-2.36.54-2.8,1.14-.52.71.51,2.04-.13,2.88-1.43,1.47-4.42,3.75-5.51,5.28-.51.71-.79,2.26-1.38,2.83-.73.7-2.28.63-2.47.86-.27.33-.72,2.29-1.85,3.45-.38.39-1.11.31-1.26.48-.18.21-.17,1.34-.52,2.02-.39.74-1.4,1.32-1.91,2-.9,1.19-3.14,4.36-4.31,5.11-.82.52-1.81-.46-2.16.16s-.11,1.74-.48,2.66c-.66,1.66-5.73,7.82-7.13,9.32-.73.78-2.98,2.05-3.07,2.21-.26.48.1,1.37-.26,1.89-.26.39-1.2.33-1.58.75-.2.21.13,1.11-.28,1.5-.29.27-.94.23-1.2.46-1.96,1.74-3.47,5.53-5.49,7.35-.62.56-3.33,2.18-3.59,2.48-.49.55-1.02,2.62-1.58,3.11s-1.32.28-1.76.59c-.18.12-2.03,2.48-2.71,3.18-.27.29-.29,1.13-.49,1.26-.54.34-2.29-.21-2.64.1-.09.08-.16,1.17-.48,1.67-.34.53-3.64,3.44-4.14,3.69-.89.46-2.44.31-2.79.54-.28.18-.22,1.46-1.34,1.99-2.06.97-3.19-.41-4.02-.36-.42.02-.97.94-1.94.99-2.11.1-4.5-1.3-5.72-2.97-.31-.42-.18-1.31-.47-1.59-.23-.22-1.02-.08-1.29-.46-.3-.43-.11-1.34-.39-1.97-.25-.55-1.15-.95-1.53-1.61-.57-1-2.14-9.25-2.08-10.43.04-.78.83-1.13.9-1.85.13-1.32-1.04-4.48-.99-5.82.06-1.7,1.43-3.42,1.49-4.05.05-.52-.73-1.09-.91-1.89-.4-1.72.62-6.73.95-8.63.15-.85-.17-1.91.08-2.66.21-.62,1.5-.93,1.5-1.23,0-.4-1.31-.29-1.18-1.18.16-1.07,1.38-.99,1.57-1.62.2-.68-.63-1.25-.75-1.93-.39-2.06.59-3.08.97-4.68.47-2.03.8-3.81,1.35-5.9.13-.5-.15-1.42.08-1.68.12-.14.8-.05,1.07-.27.39-.33.81-1.33,1.02-1.33.13,0,2.03,1.21,2.1,1.41.32.96.52,3.33-.33,4.05,1.46-.1.4.88.51,1.71.04.31.53.61.56,1.15.06,1.19-.91,2.32-1,2.91-.07.5.66.93.73,1.51.1.81-.82,1.38-.84,2.31-.02,1.17,1.09,3.03.72,5-.18.94-.94,1.68-.97,2.36-.06,1.53,1.04,3.79.94,6.29-.13,3.39-.69,10.05-.15,13.31.11.66,1.15,1.35,1.36,2.11.22.83-.02,1.73.18,2.56s2.02,6.55,2.46,6.54c.72-1.58,3.33-1.12,4.12-1.75.2-.16,1.51-3,2.98-4.06.68-.49,2.19-.72,2.4-.93.18-.18.63-1.97,1.26-2.74.78-.95,3.11-2.4,3.7-3.07.43-.49,1.49-2.67,1.88-3.01.33-.28,3.22-1.04,3.4-1.3.31-.42-.79-1.57-.02-2.54s3.03-.85,3.15-.98c.14-.15,0-2.56,1.18-3.72.48-.47,1.14-.41,1.6-.85,2.95-2.8,6.03-8.49,9.2-11.86.34-.36.96-.03,1.36-.54.45-.57.65-2.03.83-2.15.35-.22,1.3.11,1.49-.07.08-.08.03-1.45.39-2.06.84-1.43,2.41-2.47,3.44-3.5s.51-4.43,4.01-3.03c.03-.56-.11-1.2.02-1.74.38-1.58,2.84-3.51,3.76-4.66.41-.51.75-1.94,1.42-2.49.96-.78,2,.19,2.44-.51.17-.28-.28-1.02,0-1.94.49-1.63,3.35-2.46,3.65-2.82.21-.25-.02-1.12.15-1.61.41-1.22,1.81-1.41,2.63-2.08.56-.45.58-1.17,1.48-1.66.8-.43,2.89-.49,3.55,0Z"/>
    <path class="cls-1" d="M408.24,225.75c.1.1-.11,1.26.01,1.74.15.62.77,1.15.78,1.6.02.82-1.32,1.25-1.16,1.9.19.73,1.17.73,1.04,2.77s-1.09,2.23-1.08,2.38c.02.54.67.92.79,1.57.33,1.72-.1,3.98-1.55,5.08.76.62,1.28.38,1.2,1.55-.13,1.84-1.44,1.56-1.6,1.78-.22.31,1.46,1.16,1.47,2.06.02,1.51-1.44,4.06-1.46,4.79s.78,1.27.75,1.96-1.4,3.09-1.54,3.95c-.25,1.53.75,2.21.75,3.1,0,.95-1.62,4.91-1.75,6.45-.07.79.31,1.5.22,2.15-.12.93-1.45,1.58-1.51,2.43-.03.51.65.95.73,1.53.02.18.01,3.25,0,3.49-.08.9-1.58,1.55-1.17,2.15.06.09,1.68.3,1.52,1.31-.06.38-.87.97-1.05,1.72-.44,1.84.05,3.66-1.7,5.35l-2.1,2.22c-.7-.1-2.02-1.48-2.26-2.09-.34-.85.26-2.08.11-2.23-.08-.09-1.6.12-2.34-.6-2.23-2.14-.94-5.4-1.16-7.82-.08-.95-.78-1.7-.78-2.35-.01-1.34,2.42-2.67,1.75-3.73-.24-.38-1.13-.18-1.19-1.34-.08-1.5.63-2.23.89-3.26.13-.5-.27-1.02-.2-1.41.09-.51,1.01-.81,1.1-1.63.1-.93-.82-1.64-.79-2.34.02-.52.64-.97.75-1.59.39-2.19-.5-3.75,2.76-4.1l-1.94-3.32c1.08-1.59.86-3.34,1.19-5.06.53-2.74,1.84-6.49,2.29-9.06.29-1.67-.23-3.47.21-5.28.41-1.69,2.1-4.05,2.76-5.86.22-.61.06-1.62.26-1.89.07-.09,1.97-.84,2.09-.84.47,0,.85.54,1.28.68.51.16,1.59.04,1.65.1Z"/>
  </g>
  <path class="cls-1" d="M284.51,256.29c.09,1.09-1.15,1.32-1.47,2.24-.37,1.07-.03,2.75-.21,3.37-.17.58-.98.95-.97,1.22,0,.19.6.59.64,1.17.22,3.52-1.45,7.77-1.49,10.57-.03,2.1.5,4.4-.04,7.04-.17.84-1.05,1.46-1.1,2.04-.04.44.68,1.06.76,1.89.06.63-.03,3.93-.07,4.73s-1.08,1.23-1.09,1.53c0,.26,1.11,1,1.03,1.9s-1.89,2.04-1.49,2.6c2.3.11,1.55,1.48,1.98,2.85.12.38.79.16.79.85,0,.37-.37,2.41-.5,2.7-.26.58-.89.54-1.03.74s.3.84-.1,1.61c-.42.81-2.33,2.21-3.23,2.13-2.09-.18-1.73-1.75-1.84-1.85-.31-.29-1.87.66-2.71-.21-.19-.19-1.47-2.57-1.53-2.83-.44-2.06,1.91-1.86,1.92-3.04.01-1.33-2.13-.89-2.37-1.66-.29-.94-.24-3.66.02-4.59s1.06-1.31,1.12-1.64c.08-.48-.84-1-.77-1.88.06-.68.81-1.15,1.01-1.78.77-2.41,1.54-6.04,2.06-8.51.32-1.54-.35-2.84.86-4.23.37-.43,1.48-.81,1.57-1.19.13-.55-1.03-1.24-1.03-1.93,0-1.22,1.97-5.67,2.5-7.16.86-2.44.95-3.07,2.24-5.61.25-.48.1-1.21.31-1.46.12-.15.71,0,.94-.19,1.04-.87,1.4-1.72,3.28-1.44Z"/>
  <g>
    <path class="cls-1" d="M334.66,215.55c.14.14,1.33-.1,1.94.21s.64,1.24,1.01,1.74c.3.39.94.52,1.13.82.81,1.27.12,3.33-1.36,3.71.48.99,2.91.15,3.05,3.25.04,1.02-.55,1.33-.63,1.93-.08.63.39,1.26.26,1.8-.11.47-.85.76-1.04,1.33-.21.65.09,1.45-.28,2.07-.22.38-1.31.62-1.34.97-.03.41,1.44,1.48.28,3.46-.94,1.6-3.17.67-3.67,1.42-.42.63-.06,3.72-.99,5.27-.09.15-1.96,2.49-2.08,2.61-.65.63-2.04.69-2.13.81-.18.23.02,1.13-.13,1.62-.42,1.36-2.21.98-3.18,1.53s-1.47,2.19-3.32,2.59c-.96.21-1.54-.27-2.19-.2-.59.06-1.23.87-1.97.66-1.4-.4-.19-3.39-.32-4.06-.17-.86-5.82-3.82,1.45-4.15.79-.8-.33-.79-.77-1.17-2.62-2.3-6.19-4.63-6.73-8.47-.08-.6.34-1.22.26-1.88-.09-.73-.83-1.08-.81-2.35.06-3.45,1.89-2.76,2.37-3.37.2-.26-1.48-3.03.64-4.25.48-.28,1.61-.41,1.67-.48.31-.35-.37-2.4.41-2.92.62-.42,1.83.06,2.32-.23.14-.08.93-2.39,1.36-2.95.18-.24.89-.52,1.28-.88.34-.31.45-1.13.83-1.22.83-.2,2,.49,2.07.41.13-.14.04-2.06,1.05-2.31.43-.11.97.3,1.44.22,1.22-.2,3.18-1.04,4.49-.82.59.1,2.95,1.1,3.25,1.49.46.61.26,1.67.38,1.77ZM329.15,223.41c-2.91-1.17-2.1.26-3.16,1.34-.62.63-4.85,4.68-5.25,4.93-.61.39-1.73.36-2,.74-.37.52-.03,1.73-.26,2.48-.17.54-.77.95-.9,1.45-.9,3.46-.52,6.04,1.39,9.02.79-.04.15-1.28.57-1.97.29-.47,1.13-.48,1.48-.78,1.47-1.27,2.23-3.1,4.59-1.95-.22-1.95.27-4.62,1.39-6.25.43-.64,1.2-.7,1.31-.85.31-.44-1.33-3.04,2-2.69-1.4-1.46-1.83-3.58-1.17-5.47Z"/>
    <path class="cls-1" d="M305.13,254.47c.25.24,1.98,3.06,2.03,3.3.17.77-.41,1.48-.15,2.04.81,1.71,3.02,3.92,3.58,6.27.24.99-.34,1.58-.26,2.1.05.34.86.29,1.13.9.52,1.18-.03,2.74.27,3.62.5,1.44,2.14,1.37,2.35,3.74.04.48-.43,1.92-.19,2.16.09.09,1.35-.19,2,.56.76.88-.33,2.26-.04,2.56.06.07.91-.05,1.37.39s.44,1.41.81,1.94c.46.66,2.74,3.45,2.86,3.8.32.92-.46,1.96-.29,2.99.2,1.2,1.91,1.98,1.9,2.82l-1.14,2.78c-.18.22-4.31,1.25-4.54,1.22-.83-.09-.91-1.72-1.35-2.07-.48-.38-1.64.72-2.6-.11-.6-.53-.41-1.45-.76-1.98-.29-.44-1.17-.55-1.29-1.03-.1-.39.55-1.49.34-1.73-.08-.09-1.52.04-1.99-.66-.65-.97.11-1.8-.05-2.58-.19-.97-1.81-2.02-2.08-2.65-.12-.27-1.24-5.37-1.22-5.66.03-.35.72-.76.66-1.54-.01-.18-.63-.16-.86-.76-.52-1.35-.3-2.87-.59-3.67-.41-1.11-.58-1.04-1.09-2.83-.47-1.64-1.64-4.35-1.41-6.01.04-.28.69-.27.92-.74.93-1.88-.59-1.36-.84-2.12-.33-.99-.99-4.05-.82-5.01.37-2.1,1.33-4.04,3.36-2.04Z"/>
  </g>
  <path class="cls-1" d="M380.05,265.69l-2.38,2.51c-2.81,1.17-3.83,2.28-5.65,4.13-.12.13-2.32,1.34-2.53,1.4-1.49.43-2.63-.36-3.28-.17-.69.2-1.01,2.05-1.96,1.89-1.24-.21-1.22-2.68-2.01-2.32-.83.39-1.33,3.41-2.83,3.85s-2.14-.88-3.01-.75c-.25.04-.33.93-1.18,1.27-.69.27-1.42-.13-1.9.02-.58.19-.88.92-1.34,1.04-.62.16-1.28-.41-1.83-.36-.11.01-1.08.58-1.89.9-.61.24-1.29.99-1.74,1.02-.51.03-.88-.63-1.12-.64-.33-.02-.94,1.14-1.65,1.39-.44.15-3.87-.13-4.02-.31-.21-.24.39-1.34.36-1.78-.03-.62-.86-1.1-.76-1.53.08-.33.91-.42,1.08-.69.29-.47-.06-1.26.48-1.68.37-.28,1.3-.12,1.82-.54s.44-1.4.6-1.54c.23-.19,1.25.02,1.89-.26s1.29-1.63,1.97-1.94c1.01-.46,3.29-.17,3.43-.27.25-.18.29-1.04.86-1.32,4.06-1.99,10.37-3.52,14.98-4.19,1.32-.19.96-1.38,2.9.81l4.23-1.09c2.08.83,4.31.58,6.48,1.15Z"/>
  <g>
    <path class="cls-1" d="M238.31,314.64c-.13.17,1.02,1.26.76,2.1-.15.48-.96.42-1.14.93-.29.79-.04,2.27-.61,3.21-.45.75-1.48.78-2.16,1.37-1.7,1.47-2.46,3.78-4.49,4.9-.3-.03-2.28-4.44-2.39-5.07-.18-.95.18-1.45.13-2.1-.03-.34-.66-.74-.67-1.24,0-.29,1.24-3.18,1.37-3.92.14-.82-.24-3.25.09-4.01.3-.69,2.47-2.12,2.77-3.11.44-1.44-.24-2.93-.18-4.17.1-1.79,1.1-5.5,3.39-5.35l-1.12-2.88c.2-1.04,1.83-.95,1.9-1.04.3-.32-.64-1.32-.65-1.75,0-.6,1.04-1.8,1.25-2.54.78-2.69.78-5.48,3.06-7.74.22-.22.91.09,1.05-.36.1-.31.61-2.45.65-2.74.11-.84-.36-3.55-.22-4.18.2-.86,1.49-.92,1.54-1.28.11-.81-.91-1.4-.84-2.3.08-.98,1.42-1.43,1.53-2.04s-.79-1.22-.67-1.84c.17-.92,3.01-2.04,2.29-3.78-1.31.11-2.83-.19-4.09.02-1.12.18-1.71,1.2-2.76,1.2s-1.71-1.23-3.07-.77c-.84.28-.84,1.77-1.43,2.11-.67.39-1.69.04-2.47.27-.48.14-.84.77-1.34,1.01-1.82.85-2.41-.02-2.47,3.04-.02.84.42,1.56.39,2.3-.04.96-.81,1.89-.8,3.16.01,1.46,1.51,2.79.02,3.51-1.09.53-2.15-.43-1.37,1.79.49,1.41,2.6,1.92,1.59,3.91-.25.49-1,.58-1.26.88-1.34,1.59.51,3.19.22,4.32-.25.99-2.57,1.47-3.43,2.07-.44.31-.72,1.25-1.03,1.33-.67.18-1.23-1.14-1.77-1.38-.5-.22-1.05.16-1.56.02-2.37-.67-.11-3.08-.36-4.71-.17-1.13-1.82-1.27-1.95-2.01-.1-.56.98-1.24,1.06-1.96.14-1.36-.98-2.37.29-4.84.33-.64,1.35-.66,1.38-1.01.07-.8-.84-2.26-.5-3.58.56-2.13,2.3-1.91,2.44-2.07.55-.62-1.02-1.77-1.17-2.55-.65-3.23,1.56-2.31,2.26-3.01.29-.29.24-1.65.69-2.28.34-.48,1.27-.02,1.66-.45.65-.72.51-1.42,2.04-2.87,1.33-1.26.85-1.93,3.52-.98-.33-2.92.74-2.06,1.96-2.6,2.32-1.04,3.3-1.51,5.32-2.84s3.65-.65,5.01-.91c.4-.08.77-.8,1.32-.99,1.14-.38,5.38-.72,6.55-.51,1,.18.96,1.13,1.61,1.54.73.47,2.19.24,2.46,1.06.24.72-.12,1.77.13,2.62.21.71,1.32,1.14,1.43,1.7.14.73-.91,1.37-1.01,1.96-.12.74.44,1.99.19,3.38-.18.98-.95,1.69-1.08,2.48-.37,2.21-.23,7.24-1.79,9.14-.83,1.01-1.89.8-2.35,2.73-.39,1.65.23,2.66.11,3.7-.09.81-1.37,1.79-1.32,2.38.03.35.73.75.66,1.54-.22,2.45-2.64,6.39-3.41,8.77s-1.25,6.57-2.18,8.79c-.52,1.26-1.94.92-2.21,1.71s.1,1.9-.22,2.91c-.23.72-1.17,1.27-1.24,1.72-.11.75.52,1.88.16,3.08-.3.97-1.43.98-1.49,1.06Z"/>
    <g>
      <path class="cls-1" d="M117.28,271.61c.55.86-.9,2.4-.77,3.23.06.39,1.37.46,1.51,1.27.23,1.3-.47,3.78-.65,5.09-.07.47.29,1.04.24,1.47-.18,1.45-2.26,1.67-2.24,2.79,0,.24.93.35,1.29,1.07.82,1.65-.75,3.77-1.18,5.31-.39,1.38-1.89,5.3-1.98,5.81s.43,1.14.26,1.83c-.23.92-1.85,1.32-2.69,1.46-.24.94,1.29,1.33,1.15,2.1-.09.51-1.34,1.05-1.45,1.66-.08.47.38,1.17.28,1.86-.23,1.64-.9,2.69-1.44,4.09-.35.92-.89,3.29-1.16,3.88-.35.77-1.32.96-1.5,1.27-.19.34.32,1.08.15,1.69-.25.89-1.11,3.34-1.51,4.41-.63,1.67-2.41,3.92-2.94,5.3-.47,1.24-.63,3.47-1.54,5.1-.47.84-1.67,1.47-1.73,1.76-.08.39.43,1.02.3,1.49s-.93.49-1.06.71c-.28.47.1,1.41-.26,1.91-.28.4-1.2.25-1.34.41-.19.21.07,2.11-.31,3-.26.6-1.14.63-1.27,1.12-.14.54.44,1.14.18,1.71-.55,1.23-2.8.63-2.96.78-.35.33.43,7.13-1.72,9.43-.62.66-1.64.69-1.74.8-.56.67.45,5.67-2.8,5.04,2.5,3.41-1.15,3.65-1.77,4.69-.46.77-.16,3.49-1.41,5.25-.75,1.06-1.94.76-2.34,1.28-.95,1.26.49,2.38.38,3.02-.13.73-2.03,1.3-2.45,2.19-.62,1.29-.4,4.24-1.65,6.24-.99,1.58-2.71,1.96-3.57,2.89-.71.77-1.77,3.77-3.36,3.36-1.71-.44-1.38-3.08-1.94-3.77-.34-.42-2.1-.67-2.67-1.44-1.15-1.54.41-1.92.72-2.86s-.1-1.75.68-2.84c.67-.94,2.07-1.1,2.14-1.2.12-.16-.5-1.24-.32-2.03.26-1.14,1.61-2.56,2.06-3.46.31-.62.1-1.55.39-1.96.63-.9,3.44.41,1.44-3.25.18-.97,1.69-.9,1.85-1.09.25-.28-.09-2.01.14-2.8.1-.33,2.79-5.72,3.01-6,.41-.52,1.31-.33,1.62-.82.53-.86.17-2.54.37-3.36.11-.44.94-.37,1.1-.9.09-.3-.26-1.01-.08-1.66.31-1.12,1.9-4.23,2.61-5.05.35-.39,1.33-.35,1.66-.89.69-1.12-.56-3.73.99-4.51.46-.23,1.3,0,1.57-.46.55-.94.17-2.83.39-3.83.15-.66,1.46-4.25,1.77-4.89.52-1.09,2.14-2.28,2.33-2.78.26-.65-.34-1.32-.16-2.06.17-.66,1.31-1.18,1.68-1.88.7-1.3.42-2.96.8-4.29.77-2.7,2.94-4.24,3.72-7.25.16-.62-.17-1.68.07-2.08.15-.26,1.45-.36,1.52-.45.16-.21-1.63-4.06,1.95-3.52-.47-.86-1.03-1.82-.78-2.86.07-.28.69-.22.77-.54.19-.74-.06-1.27.37-2.3.51-1.22,2.76-2.51,2.77-2.71,0-.15-.8-.62-.97-.98-.84-1.78.75-2.47,1.25-3.83,1.17-3.21.78-7.61,1.98-11.33.5-1.53,1.17-.45-.31-2.84l-.52.04c-1.47.94-4.06,2.6-5.71,2.94-.95.2-2.28-.33-2.36-.25-.04.04.02.78-.21,1.14-.18.29-3.34,2.25-3.55,2.29-.43.07-1-.38-1.47-.26s-2.21,2.74-3.91,2.58c-.55-.05-1.98-.87-2.2-.66-.13.12-.07,2.29-1.36,3.15-1.42.95-4.66,1.06-4.87,1.2-.3.2-.15,1.53-.7,1.94s-2.02.46-2.75.88c-2.08,1.19-4.68,4.59-7.3,5.46-.84.28-1.63-.16-1.77-.07s-.77,1.78-1.42,2.32c-1.01.84-3.61,1.72-4.62,2.71-.56.54-.35,2.21-2.11,1.28-2.49-1.31-1.23-4.26-.05-6.11.5-.78.95-1.68,1.3-2.2.37-.56,2.01-.52,2.59-1.34.51-.74.21-1.75.71-2.42.66-.87,2.25-.42,2.39-.55.13-.12-.9-1.56.4-2.17,1.56-.72,3,1.69,2.51-2.16.49-.67,1.96-.2,2.16-.4.13-.13-.16-1.39.57-1.98s1.83-.17,2.59-.54c.87-.42.75-2,1.59-2.72,1.46-1.25,3.7-1.15,4.22-1.46.12-.07.54-1.58,1.43-2.29,1.93-1.54,4.61-1.65,5.98-2.44.23-.13.45-1.11,1.05-1.5,1.87-1.24,3.5-1.46,5.42-2.02.98-.28,3.08-2.41,4.09-2.6,1.13-.21,2.35.69,3.75.26,1.28-.39,1.05-2.82,3.2-2.88.67-.02,1.39.45,2.06.52s1.27-.36,2.06-.15c1.03.28,1.67,1.7,2.35,2,.91.41,1.91.05,2.84.29.12.03,2.13,1.03,2.2,1.13Z"/>
      <path class="cls-1" d="M124.14,279.16c-.26.24-.5.97-.73,1-1.36.16-1.21-2.54-1.75-2.95-.49-.38-1.23.64-2.16-.15-1.42-1.21-1.9-6.25-2.32-8.34-.6-2.93.09-1.85.17-3.64.04-.89-.84-1.42-.76-1.87s1.03-.84,1.11-1.28c.08-.47-.85-1.02-.78-1.89.07-.8,1.02-1.12,1.11-1.63.07-.41-.35-.96-.24-1.44.13-.59,1.62-1.26,1.05-2.18-.09-.15-.94-.18-1.09-.68-.08-.25,1.55-4.63,1.75-4.86.45-.48,1.08-.28,1.64-.54.15-.07.1-.65.31-.65.79-.01.99.97,1.64,1.12.49.11,1.04-.3,1.44-.24,1.25.19,1.49,3.29,1.65,4.25.07.41.5.82.54,1.35.09,1.47-1.61,4.27-1.52,4.64.13.53,1.24.75,1.56,1.18.87,1.17.07,2.34.12,3.49.04.86.54,2.07.46,2.83-.07.68-.75,1.04-.91,1.64-.57,2.12,1.1,3.04,1.08,4.22s-1.63,1.22-1.89,2.01c-.76,2.26,1.36,1.97-1.47,4.59Z"/>
      <g>
        <path class="cls-1" d="M174,274.03c.09.05.03.5.38.64.42.17,1.21-.11,1.7.19.66.4.19,1.96.39,2.16s2.1-.34,2.34,1.42c.16,1.21-.68,1.78-.72,2.39-.03.48,1.03,1.96,1.06,3.11.04,1.42-.99,2.71-1.05,3.55-.05.66.65,1.18.67,1.88s-.6,1.4-.68,2.07c-.1.75.33,1.46.16,2.07-.25.95-1.41,1.12-1.43,1.38-.07,1.13,1.37,1.89-.19,4.06-.63.87-1.84.74-2.08,1.44-.61,1.75.58,4.3.34,5.79-.36,2.23-2.22,6.07-3.02,8.37-1.16,3.32-1.62,7.16-2.96,10.74-.3.81-1.6,2.35-1.79,3.35-.17.9.97,1.49.74,2.56-.03.15-2.26,1.94-2.4,2.01-.36.18-.9-.08-1.16.06-.78.41-1.07,1.67-2.47,1.35-.28-.06-.49-.82-.9-1.13-.6-.46-3.15-1.96-3.24-2.28-.11-.43.27-1.01.27-1.51,0-1.57-.87-2.09,1.65-2.55.33-1.08-.75-.75-1.2-1.33-1.09-1.41.63-1.74.76-2.44s-1.16-1.46-.24-3.37c.46-.97,1.77-1.29,1.86-1.69.1-.44-.89-1.04-.81-1.91.07-.78.93-1.03,1.09-1.64.64-2.45,1.01-5.16,1.81-7.65s1.24-2.08,2.4-3.47c1.32-1.58.03-2.71.2-4.07.12-.91,1.33-1.45,1.52-2.46.26-1.38-.98-1.81-.24-3.71.66-1.7.39-1.5.74-2.76.16-.57,1.02-.84,1.14-1.67s-.44-1.68-.41-2.53c-.76-.74-3.18,3.79-3.39,3.95-.62.46-2.9-.35-3.56.84-.22.41-.02,1.09-.21,1.55-.37.89-4.69,4.79-5.77,5.59-.6.44-1.61.46-1.85.7-.25.25-.14,1.08-.65,1.5s-1.52.29-2.23.9c-.64.55-.61,1.41-.95,1.79-.48.56-1.43.32-1.99.75-.48.38-.48,1.29-.95,1.79-1.45,1.5-3.68,1.03-3.93,1.17-.47.26-.61,1.66-1.14,1.98-.6.36-4.91.89-5.87.57.63-1.22-.44-2.49-.35-3.22.33-2.46,2.06-1.69,2.27-1.89.1-.1.08-1.88.92-2.6.42-.36,1.28-.38,1.4-.55.27-.4-.16-1.57.09-1.87.14-.17,1.45-.08,1.83-.52.31-.36.26-1.63.53-1.82.42-.29,2.06.31,2.52-.41.38-.6-.06-1.76.35-2.39.28-.43,2.24-.83,2.47-1.25.25-.45-.03-1.24.45-2.09.1-.18,2.28-2.54,2.77-3.11,1.75-2.05,3.06-1.47,3.48-1.81.16-.13.13-1.21.4-1.65.3-.47,1.32-.52,1.82-1.02.55-.55.57-1.41,1.14-2,1.12-1.18,2.8.02,3.3-.42.1-.09.08-.92.42-1.32s2.51-2.64,2.77-2.76c.85-.37,2.07.45,2.33.21.07-.07.16-1.74.43-1.93.65-.47,3.19.91,4.02.78.31-.05,1.22-2.81,2.9-1.86Z"/>
        <path class="cls-1" d="M139.89,239.99c1.65,3.25.26,3.39.5,5.93.17,1.89.54,1.66.42,4.3-.14,3.19.34,6.65.24,9.72-.04,1.25-.84,2.68-.88,3.21-.07,1.04,2.1,1.43,1.15,3.63-.2.47-.9.45-.93.72-.14,1.22,1.6,2.94.41,4.45,1.41.43,1.36-.99,1.97-1.36,1.36-.82.5.18,1.8-1.32,3.95-4.57,12.23-7.52,17.8-9.61.53-.2,2.28-.92,2.58-.95,1.03-.11,1.22,1.65,1.94,1.85.65.19,1.78-.64,2.98-.28.55.17,3.01,1.8,3.02,2.46,0,.22-1.23,2.75-1.39,2.92-.42.46-1.18.39-1.54.81-.84.96-.03.78-1.72,2.2-.8.66-.54,1.33-2.19,1.33s-5.02.4-6.59.86c-.61.18-3.77,2.44-4.46,2.6-.64.15-1.21-.5-2.06-.15-1.69.71-5.36,3.85-7.06,4.37-.79.24-1.82-.21-2-.08-.3.24-.34,1.1-.78,1.57-1.64,1.74-5.02,2.19-5.26,5.31-2.19-1.24-1.15-3.58-1.46-5.2-.2-1.03-1.27-1.52-1.42-2.13-.12-.54.4-1.16.15-1.68-.39-.83-1.75-.55-2.53-1.41-1.17-1.28-.14-3.5-.6-4.85-.36-1.06-1.7-1.62-1.79-2.55-.12-1.21.92-3.17,1.05-4.35.16-1.42-.4-3.85-.29-5.45.15-2.24.19-4.01,2.37-5.08l-1.54-.83c.62-1.67-.9-6.33,1.54-6.02.09-.89-.92-1.15-.81-2.13.08-.76.81-.98.97-1.38.21-.52-.2-1.89.32-2.86.33-.62.91-.66,1.26-1.1.29-.36.17-1.09.22-1.14.12-.12,3.01.87,3.14.97.57.44.25,1.34.46,1.9.19.51.84.57.95.79Z"/>
      </g>
    </g>
    <g>
      <path class="cls-1" d="M211.22,295.53c-.28.73.1,2.93.02,3.22-.14.55-1.15.48-1.15.83.01.56.78,1.33.71,2.17-.43,4.76-3.09,11.96-4.36,17.16-.12.47.24.98-.03,1.57-.83,1.83-3.53,1.87-3.68,2.03-.19.19.13,1.38-.59,1.95-1.77,1.39-4.42-.41-5.14-2.02-.27-.6.14-1.16-.01-1.56s-.89-.59-.96-1.36c-.05-.53.37-1.1.37-1.6,0-1.19-.93-1.77.46-2.68.35-.23,1.09-.17,1.14-.22.09-.09-.54-1.74-.41-2.52s.84-1.05,1.08-1.69c.4-1.07.71-3.28,1.09-4,.33-.63,1.23-.67,1.34-.84.14-.22-.34-.85-.24-1.24.75-2.88,3.26-2.96,3.9-4.28s-.4-2.34-.01-3.33c.22-.57,3.3-2.39,3.69-3.24,1.52-.37,1.58,1.23,2.79,1.67Z"/>
      <path class="cls-1" d="M180.45,297.87c.13-.22.88-.19,1.01-.69.1-.38-.49-.97.02-1.56,1.24-1.44,3.8-.73,4.85.71,2.37,3.27,3.17,9.77,5.72,13.09.06,1.7-1.08,4.71-2.68,5.43-.39.17-.69-.49-1.2-.44-.6.06-1.34.78-2.07.57s-.91-1.76-1.61-2.33c-.97-.79-2.65-.44-3.32-1.38-.43-.61-1.22-4.57-1.23-5.46-.02-1.33.73-2.2.73-2.35,0-.32-.91-.71-1.01-1.22s.51-1.37.63-1.99c.13-.72-.08-1.96.17-2.38Z"/>
      <path class="cls-1" d="M198.11,296.49c.82,1.15,1.67,1.35,2.06,3.54.75,4.14-1.65,3.21-4.3,5.19-1.1-.4-1.09-2.52-1.79-2.93-.82-.48-2.36.21-2.96-.57-.32-.42-.94-4.02-.82-4.72.34-1.87,2.78-2.47,3.58-4.3.85.61,2.21,1.14,2.94,1.74.94.78.81,1.38,1.28,2.05Z"/>
    </g>
  </g>
</svg>