<?xml version="1.0" encoding="UTF-8"?>
<svg id="_レイヤー_1" data-name="レイヤー 1" xmlns="http://www.w3.org/2000/svg" viewBox="0 0 566.93 566.93">
  <defs>
    <style>
      .cls-1 {
        fill: none;
        stroke: #35a45b;
        stroke-linecap: round;
        stroke-miterlimit: 10;
        stroke-width: 15px;
      }
    </style>
  </defs>
  <path class="cls-1" d="M54.88,307.5l50.83-37.18.68-1.66c1.44.73,2.64,1.89,3.3,3.37,2.45,5.49.85,12.99.54,19.51l-24.82,59.02-17.68,35.87c-.18.36-.73.16-.62-.23l39.37-149.89,13.08,4.78,2.47,42.37v-54.81l14.81,2.96-1.47,34.48c-.04.71-.41,1.35-1,1.74l-11.6,7.93,15.1,2.23,36.43-18.35-45.58,28.31,1.49,24.64,39.25-32.42,3.44,6.57-13.14,52.34,14.26-59.01,15.05,37.01-10.85-23.57c-1.81-4.99,8.57-10.88,13.8-9.99l3.09,14.67c.05.24.38.27.47.04l6.2-14.84-.62.08c6.49,1.93,9.96,8.99,7.52,15.32l-10.36,28.37,14.93-71.12,9.72-.15-3.39,40.2,1.03-31.98,29.62-7.04-17.3,66.99c-.12.47.52.72.76.3l43.65-78.49,4.87,7.31-6.36,48.99c-.2,1.57,1.99,2.17,2.61.7l23.25-55.38,17.74,53.44-14.3-59.66,1.98-.13c4.76-1.36,5.52-1.75,4.96-6.67l2.69-5.82,14.73-13.14,6.93,10.46-17.15,24.55,14.94,30.39,48.18-15.89,8.99-43.61,14.29-.88-7.51,73.38-4.81-62.33,32.51-19.33-2.95,53.89,6.04,7.81,8.1-2.65,64.09-72.35"/>
</svg>